<?xml version="1.0" encoding="UTF-8"?>
<svg id="Layer_2" data-name="Layer 2" xmlns="http://www.w3.org/2000/svg" viewBox="0 0 92.1 33.16">
  <defs>
    <style>
      .cls-1 {
        fill: #e9f1fa;
      }

      .cls-1, .cls-2, .cls-3, .cls-4, .cls-5, .cls-6, .cls-7, .cls-8, .cls-9, .cls-10 {
        stroke-width: 0px;
      }

      .cls-2 {
        fill: #e7e7f4;
      }

      .cls-3 {
        fill: #e7e8f4;
      }

      .cls-4 {
        fill: #e9e9f5;
      }

      .cls-5 {
        fill: #f2f3fa;
      }

      .cls-6 {
        fill: #c8d6ee;
      }

      .cls-7 {
        fill: #fff;
      }

      .cls-8 {
        fill: #e9ebf6;
      }

      .cls-9 {
        fill: #e9eaf5;
      }

      .cls-10 {
        fill: #edeff8;
      }
    </style>
  </defs>
  <g id="Layer_1-2" data-name="Layer 1">
    <g>
      <path class="cls-6" d="M.35,9.16c1.24-2.1,4.78-2.26,5.96-2.32,1.43-.07,3.4.28,7.03.85.31.05,1.01.16,1.92.04.98-.13,1.42-.43,2.05-.62,2.12-.66,4.26.43,4.43.53,1.69.89,1.57,2.02,3,2.47,1.18.37,2.2-.13,3.19-.49,2-.72,3.9-.71,7.69-.69,5.8.03,10.17,1.34,10.17,1.34,1.52.45,2.71.94,3.97.39,1.53-.68,1.32-2.09,3.17-3.27,1.67-1.06,2.6-.39,3.68-1.48,1.11-1.12.54-2.24,1.28-3.43,1.58-2.54,6.91-1.87,8.96-1.61,3.95.5,9.63,2.29,9.81,4.87.08,1.17-.98,2.09-.44,2.96.43.69,1.28.42,2.53.94,2,.84,1.84,2.38,3.53,3.47,2.01,1.29,3.37-.18,5.58.71,2.61,1.04,4.15,4.45,4.23,7.29.13,4.53-3.43,8.11-6.76,9.17-2.71.86-4.89-.07-7.11-.65-9.63-2.49-12.34,3.66-24.76,3.54-8.97-.09-8.99-3.2-18.33-2.72-5.05.26-6.73,1.26-12.75,1-5.38-.23-4.77-1.07-10.81-1.31-4.05-.17-6.5.12-8.46-1.69-1.43-1.32-1.87-3.11-2.08-3.94-.69-2.75.32-3.87.42-7.04.15-4.84-2.31-6.26-1.12-8.29Z"/>
      <path class="cls-7" d="M.33,8.58c1.24-2.1,4.78-2.26,5.96-2.32,1.43-.07,3.4.28,7.03.85.31.05,1.01.16,1.92.04.98-.13,1.42-.43,2.05-.62,2.12-.66,4.26.43,4.43.53,1.69.89,1.57,2.02,3,2.47,1.18.37,2.2-.13,3.19-.49,2-.72,3.9-.71,7.69-.69,5.8.03,10.17,1.34,10.17,1.34,1.52.45,2.71.94,3.97.39,1.53-.68,1.32-2.09,3.17-3.27,1.67-1.06,2.6-.39,3.68-1.48,1.11-1.12.54-2.24,1.28-3.43,1.58-2.54,6.91-1.87,8.96-1.61,3.95.5,9.63,2.29,9.81,4.87.08,1.17-.98,2.09-.44,2.96.43.69,1.28.42,2.53.94,2,.84,1.84,2.38,3.53,3.47,2.01,1.29,3.37-.18,5.58.71,2.61,1.04,4.15,4.45,4.23,7.29.13,4.53-3.43,8.11-6.76,9.17-2.71.86-4.89-.07-7.11-.65-9.63-2.49-12.34,3.66-24.76,3.54-8.97-.09-8.99-3.2-18.33-2.72-5.05.26-6.73,1.26-12.75,1-5.38-.23-4.77-1.07-10.81-1.31-4.05-.17-6.5.12-8.46-1.69-1.43-1.32-1.87-3.11-2.08-3.94-.69-2.75.32-3.87.42-7.04.15-4.84-2.31-6.26-1.12-8.29Z"/>
      <g>
        <path class="cls-1" d="M4.94,13.94h-.01c-.08.01-.15-.05-.15-.12l-.62-3.37-.97.18c-.08.01-.16-.04-.17-.12l-.2-1.09h0c0-.08.04-.15.12-.17l1.1-.2,2.34-.43c.08-.01.16.04.17.12l.2,1.08c.01.08-.04.16-.12.17l-.93.17.62,3.38h0c.01.08-.05.15-.12.17l-1.25.23Z"/>
        <path class="cls-6" d="M10.92,14.02c-.07.05-.13.06-.19.05-.02,0-1.11-.31-.99-1.52.07-.72-.24-1.01-.67-1.05h-.03s-.21,2.16-.21,2.16c0,.07-.07.12-.13.11l-1.19-.11c-.07,0-.12-.07-.11-.14l.47-4.88c0-.07.07-.12.14-.11l1.19.11c.07,0,.11.07.11.14l-.15,1.55c.07,0,.14,0,.21.01,1.12.11,1.95.86,1.86,2.05-.03.39.02.69.29.96.03.03.09.1.09.16,0,.03-.02.06-.06.1l-.61.41Z"/>
        <path class="cls-1" d="M13.01,11.28c-.49,0-.89-.38-.9-.87s.38-.89.87-.9.89.38.9.87-.38.89-.87.9ZM12.68,14.62h-.01c-.07,0-.11-.05-.12-.12l-.2-2.92c0-.07.05-.13.12-.13l1.2-.08h.01c.06,0,.11.05.12.11l.2,2.92h0c0,.07-.05.13-.11.13l-1.2.08Z"/>
        <path class="cls-6" d="M15.55,15.13c-.13.01-.19,0-.24-.11l-.32-.67s-.02-.04-.02-.05c0-.09.11-.11.18-.12.35-.03.51-.22.49-.36,0-.08-.09-.17-.18-.27l-.18-.17c-.29-.28-.42-.53-.43-.75-.05-.68.89-1.11,1.67-1.18.23-.02.29,0,.34.1l.33.67s.02.04.02.06c0,.07-.06.09-.14.1h-.02c-.36.03-.49.16-.48.28,0,.1.11.21.35.44.3.28.44.54.46.76.06.71-.98,1.17-1.78,1.24h-.07Z"/>
        <path class="cls-1" d="M23.14,15.98h-.04c-.09.03-.16.02-.22-.05-.05-.06-.44-.66-.6-.89-.03-.04-.04-.05-.05-.05-.01,0,0,.04-.01.06,0,.28,0,.88-.01,1.04,0,.07-.08.17-.18.19l-.57.16h-.03c-.11.03-.22.02-.3-.09l-1.79-2.35s-.06-.07-.07-.12c-.01-.05.01-.11.12-.18l.79-.47s.07-.03.1-.04c.08-.02.14.01.18.06l.88,1.12s.03.02.04.02.03-.02.02-.06c-.02-.2-.08-.63-.09-.69-.02-.13.04-.18.18-.22l.67-.18h.03c.08-.03.14,0,.2.07l.31.67s.03.04.04.03c.02,0,.02-.05,0-1.38,0-.11.05-.15.13-.17.05-.01.11-.01.17-.01l.74-.02c.18,0,.23.05.25.14,0,.03,0,.07,0,.1.1,2.39-.1,3.08-.45,3.18l-.44.12Z"/>
        <path class="cls-6" d="M26.2,15.64c-1.29-.44-1.64-1.54-1.34-2.4.28-.81,1.14-1.47,2.43-1.03,1.41.48,1.04,1.75.98,1.94-.09.26-.27.44-.64.44-.3,0-.74-.08-1.04-.17-.09-.03-.11-.08-.11-.16,0-.21.01-.62.02-.64.02-.06.08-.08.16-.07.32.03.36.03.39-.04.02-.05-.03-.27-.27-.35-.27-.09-.58.07-.7.42-.14.4,0,.96.71,1.2.04.01.09.03.13.04h.01c.08.03.16.12.13.21-.02.06-.3.39-.45.56-.08.08-.18.13-.34.07l-.07-.02Z"/>
        <path class="cls-1" d="M28.87,15.78c-.07,0-.12-.07-.11-.14l.45-4.89h0c0-.07.07-.12.13-.11l1.2.11h.01c.07.01.11.07.1.14l-.15,1.64c.24-.04.48-.04.73,0,1.14.16,1.79.97,1.63,2.03s-1.21,1.7-2.25,1.56c-.26-.04-.5-.12-.75-.25l-1-.09ZM30.28,14.88c.1.04.19.07.28.08.42.06.77-.18.83-.58.04-.26-.03-.68-.52-.75-.17-.02-.35,0-.49.05l-.11,1.2Z"/>
        <path class="cls-6" d="M34.16,16.16c-.13.02-.19,0-.24-.09l-.36-.65s-.02-.03-.02-.05c-.01-.09.11-.12.18-.13.35-.05.49-.24.47-.39-.01-.08-.1-.16-.2-.26l-.19-.16c-.3-.26-.44-.5-.48-.73-.09-.67.83-1.16,1.6-1.27.23-.03.29-.02.35.08l.36.65s.02.04.02.06c0,.07-.05.1-.13.11h-.02c-.36.05-.48.19-.46.31.01.1.12.2.38.42.31.26.47.51.5.74.1.7-.91,1.23-1.71,1.34h-.07Z"/>
        <path class="cls-1" d="M37.2,12.6c-.49.06-.93-.28-.99-.76s.28-.93.77-.99.92.28.99.77-.28.92-.77.98ZM37.24,15.96h-.01c-.07,0-.12-.04-.13-.1l-.51-2.88c0-.07.03-.13.1-.15l1.18-.21h.01c.06,0,.12.04.13.1l.51,2.89h0c0,.07-.04.13-.1.14l-1.18.21Z"/>
        <path class="cls-6" d="M41.12,15.51c-.06.11-.12.16-.21.15-.02,0-.04,0-.05-.01-.93-.31-1.2-.88-1.04-2.39l-.44-.08c-.06-.01-.11-.08-.1-.15l.2-.98c.01-.06.07-.11.15-.1l.38.07c.04-.22.08-.47.13-.72.01-.07.04-.18.2-.16h.02s1.12.2,1.12.2c.1.02.14.08.13.19-.04.25-.09.51-.14.76l.41.08c.07,0,.11.07.1.15l-.2.98c-.01.06-.07.11-.13.1h-.01s-.39-.07-.39-.07c-.07.54-.05.96.2,1.11.06.04.13.07.12.14,0,.01,0,.03-.02.05l-.4.71Z"/>
        <path class="cls-1" d="M44.66,15.65c-1.35.19-2.15-.64-2.28-1.54-.12-.85.36-1.82,1.71-2.01,1.47-.21,1.72,1.1,1.75,1.29.04.27-.04.51-.38.68-.27.13-.7.26-1,.32-.09.01-.13-.02-.16-.09-.1-.19-.26-.56-.27-.58,0-.07.03-.1.11-.13.3-.11.34-.13.33-.21,0-.05-.15-.23-.4-.19-.28.04-.49.32-.44.69.06.42.43.85,1.18.75.04,0,.09-.01.13-.02h.01c.08-.01.19.03.21.13,0,.06-.09.48-.15.7-.03.1-.1.2-.27.22h-.07Z"/>
        <path class="cls-6" d="M50.58,14.73c-.49,0-.89-.4-.89-.88s.4-.89.89-.89.88.4.88.89-.4.88-.88.88ZM50.2,18.06h-.01c-.07,0-.11-.05-.12-.12l-.15-2.92c0-.07.05-.13.12-.13l1.2-.06h.01c.06,0,.11.05.11.11l.15,2.93h0c0,.07-.05.13-.11.13l-1.2.06Z"/>
        <path class="cls-1" d="M53,18.06c-.13.02-.19,0-.24-.09l-.36-.65s-.02-.03-.02-.05c-.01-.09.11-.12.18-.13.35-.05.49-.24.47-.39-.01-.08-.1-.16-.2-.26l-.19-.16c-.3-.26-.44-.5-.48-.73-.09-.67.83-1.16,1.6-1.27.23-.03.29-.02.35.08l.36.65s.02.04.02.06c0,.07-.05.1-.13.11h-.02c-.36.05-.48.19-.46.31.01.1.12.2.38.42.31.26.47.51.5.74.1.7-.91,1.23-1.71,1.34h-.07Z"/>
        <path class="cls-6" d="M4.26,26.07c-.16,0-.29-.13-.29-.29v-9.37c0-.16.13-.29.29-.29h2.43c.16,0,.29.13.29.29v9.37c0,.16-.13.29-.29.29h-2.43ZM10.33,25.99c-.16-.01-.28-.14-.28-.3l.19-3.45-2.55-.12c-.16-.01-.28-.14-.28-.29v-.02l.1-2.1c.01-.14.14-.28.29-.28h.02l2.55.13.17-3.23c.01-.14.13-.28.29-.28h.02l2.41.13c.16,0,.28.14.28.3l-.49,9.35c-.01.16-.14.28-.3.28l-2.42-.13Z"/>
        <path class="cls-1" d="M21.54,27.2c-.13.19-.26.28-.42.27-.12-.01-.93-.3-1.47-.92-.66.25-1.32.32-1.92.26-1.99-.22-3.54-1.94-3.32-3.86.16-1.43,1.4-3.38,3.76-3.11.6.07,1.17.26,1.61.52.08-.08.19-.1.34-.08h.06s2.04.42,2.04.42c.31.06.37.22.36.37v.06c-.3,1.07-.58,2.08-.67,2.87-.08.71,0,1.24.35,1.49.11.07.24.16.22.28,0,.02-.02.06-.05.1l-.9,1.36ZM19.1,23.56c.03-.31.08-.63.15-.99-.12-.25-.42-.46-.76-.5-.75-.08-1.25.6-1.32,1.2-.07.67.33,1.29,1.1,1.38.23.03.49,0,.78-.08,0-.31.01-.65.05-1.02Z"/>
        <path class="cls-6" d="M24.91,27.88c-.13.01-.25-.08-.26-.21l-1.03-9.74c-.02-.14.08-.26.21-.28l2.4-.25c.13-.01.25.08.26.22l1.03,9.74c.01.13-.08.25-.21.26l-2.4.25Z"/>
        <path class="cls-1" d="M32.52,27.79c-.02.26-.2.28-.35.27,0,0-1.97-.05-2.25-.08h-.02c-.18-.02-.29-.17-.28-.34.06-1.19.11-2.71.21-4.14l-.86-.13c-.13-.02-.23-.15-.21-.28l.33-1.97c.02-.13.14-.23.29-.21l.69.1.08-.44c.43-2.19,2.16-2.82,3.67-2.68.45.04.89.16,1.26.31.15.05.17.23.16.35v.05s-.35,1.34-.35,1.34c-.04.19-.24.29-.4.28h-.04c-.61-.06-1.48.06-1.58,1.2l1.01.16c.13.01.23.14.21.28l-.33,1.97c-.02.12-.13.22-.26.2h-.02s-.83-.12-.83-.12c-.07,1.28-.11,2.71-.12,3.82v.06Z"/>
        <path class="cls-6" d="M40.1,18.07v-.02c.02-.14.16-.25.31-.22l1.39.1c.71-.18,1.62-.23,2.51-.11,2.82.38,3.8,2.07,3.59,3.58-.11.8-.58,1.4-1.15,1.8.3.32.53.62.65,1.07.14.49.18.94.12,1.34-.27,2.02-2.83,2.79-5.21,2.47-.67-.09-2.86-.57-2.92-1.48l.7-8.52ZM42.78,22.12c.59.05,2.02.19,2.16-.83.07-.55-.28-1.12-1.31-1.25-.23-.03-.46-.04-.68-.02l-.18,2.11ZM42.47,25.83c.16.05.32.08.47.1.88.12,1.57-.17,1.65-.77s-.38-1.01-1.34-1.14c-.23-.03-.44-.05-.63-.05l-.15,1.85Z"/>
        <path class="cls-1" d="M56.48,27.88c-.1.21-.21.32-.37.33-.12,0-.97-.14-1.6-.67-.61.36-1.24.54-1.85.57-2,.11-3.81-1.33-3.91-3.26-.08-1.44.83-3.56,3.2-3.69.6-.03,1.19.07,1.67.25.07-.09.17-.13.32-.14h.06s2.08.06,2.08.06c.31,0,.41.16.41.3v.06c-.11,1.1-.22,2.15-.17,2.94.04.72.2,1.23.59,1.41.12.05.26.12.27.24,0,.02,0,.06-.03.11l-.66,1.49ZM53.47,24.69c-.02-.31-.02-.64-.02-1-.16-.23-.49-.38-.84-.36-.75.04-1.13.79-1.1,1.41.04.67.53,1.22,1.31,1.18.23-.01.49-.07.76-.21-.05-.31-.09-.64-.11-1.01Z"/>
        <path class="cls-6" d="M65.23,27.41c-.11.12-.21.18-.33.17-.06,0-.13-.04-.19-.09-.61-.5-2-1.58-2.57-2.03-.07-.06-.13-.16-.12-.27,0-.06.04-.12.1-.18l1-.97c-.65.28-1.23.52-1.48.61l-.08.03-.11,2.05c-.02.14-.12.25-.27.24l-2.4-.13c-.13-.01-.24-.12-.24-.27l.55-9.8v-.02c.02-.12.13-.22.25-.21l2.4.14h.02c.13.02.22.13.21.27l-.28,5.1c.53-.33,2.75-1.63,3.27-1.58.1.01.2.07.28.24l.82,1.72c.04.08.06.15.05.22-.01.12-.1.22-.25.27-.31.11-1.03.41-1.79.72.81.35,2.41,1.82,2.36,2.26,0,.07-.04.14-.11.23l-1.1,1.28Z"/>
        <path class="cls-1" d="M71.5,26.17c-2.69.43-4.33-1.18-4.62-2.98-.27-1.69.64-3.66,3.34-4.1,2.94-.47,3.49,2.12,3.55,2.51.09.54-.06,1.03-.73,1.38-.53.28-1.38.55-1.99.67-.19.03-.26-.04-.33-.18-.21-.37-.55-1.1-.56-1.15-.02-.13.06-.2.21-.27.59-.24.67-.28.65-.44-.02-.11-.3-.45-.8-.37-.57.09-.96.67-.84,1.4.14.84.9,1.69,2.38,1.45.08-.01.18-.03.26-.05h.02c.17-.03.38.04.42.25.02.12-.16.97-.27,1.4-.06.2-.19.4-.53.45l-.14.02Z"/>
        <path class="cls-6" d="M82.99,25.55c-.07.24-.18.37-.36.39,0,0-1.04,0-1.77-.61-.63.44-1.31.67-1.96.74-1.99.2-3.85-1.16-4.05-3.08-.15-1.46.66-3.6,3.03-3.84.51-.05,1.04,0,1.48.12l-.11-3.22c0-.2.17-.34.41-.37l2.07-.17c.33-.03.45.11.46.28v.04c0,.16.11,5.17.2,6,.1.98.31,1.69.83,1.86.14.05.27.09.29.2,0,.04,0,.07-.01.11l-.49,1.56ZM79.5,21.64c-.16-.23-.51-.36-.86-.32-.72.07-1.1.77-1.04,1.44s.59,1.19,1.35,1.12c.26-.03.55-.13.87-.32-.14-.53-.25-1.16-.33-1.92Z"/>
        <path class="cls-1" d="M84.36,24.58c.06-.95.87-1.66,1.82-1.61s1.65.87,1.6,1.82-.87,1.67-1.8,1.61-1.67-.87-1.61-1.82ZM85.23,22.41c-.14,0-.24-.12-.25-.27,0-1.07,0-4.09.09-5.74,0-.13.11-.25.25-.24l2.56.16c.22.01.39.06.28,1.96-.09,1.41-.37,2.92-.63,4.01-.03.14-.14.24-.28.24l-2.02-.12Z"/>
      </g>
      <path class="cls-5" d="M59.97,11.75c.29-1.6.57-3.21.87-4.81.12-.63.07-1.17-.38-1.71-.88-1.05-.85-2.17,0-2.86,1.24-.09,2.48-.11,3.72,0,.42.12.85.04,1.27.11.36.06.77.03.97.44-.21.3-.54.23-.83.24-.69.01-1.35.18-1.99.42-1,.39-1.32.97-1.01,1.98.16.5.12.95-.02,1.43-.32,1.13-.45,2.3-.58,2.99.1-.64.3-1.75.54-2.86.14-.16.33-.13.49-.06,1.04.5,2.15.83,3.25,1.19.02,1.11-.35,2.15-.52,3.23-.03.15-.01.3-.03.34.18-1.04.41-2.17.62-3.3.02-.13.13-.2.26-.24,1,.02,2.01.14,3.01-.05.22-.04.45.02.63.19.19,1.11-.32,2.13-.41,3.11.27-1.1.46-2.3.61-3.51.05-.43.2-.79.49-1.12.62-.71.57-1.25-.08-1.94-.48-.52-1.08-.87-1.72-1.18-.22-.11-.48-.16-.63-.39.08-.38.38-.3.63-.26.26.04.53.09.78.18.63.13,1.34.31,2.1.57.64.22,1.22.46,1.73.7.07.02.17.06.27.14.44.34.32,1.01.31,1.05-.05.28-.16.48-.42.74-.42.42-.78.91-1.37,1.15-.27.11-.32.32-.37.58-.09.48-.49,3.92-.87,4.68-.03.07-.17.32-.06.51.04.08.12.13.18.16.03.22-.15.26-.3.33-1.36.32-2.73.37-4.11.14-.07-.01-.15-.03-.21-.06-.05.04-.15.1-.29.11-.31.03-.51-.21-.54-.23-1.96-.14-3.79-.72-5.53-1.59-.22-.11-.43-.27-.44-.55Z"/>
      <path class="cls-1" d="M66.83,13.91c.64.04,1.34.06,2.11.03.79-.03,1.51-.1,2.16-.19.09.02.28.08.36.24.06.11.04.21.03.27-.09.52-.06,1.07-.4,1.53-.26.05-.51.09-.77.14-.14-.08-.29-.05-.43-.05-.04,0-.1-.02-.13.03.08-.04.13,0,.17.07-.26.15-.54.13-.82.1-.55-.09-1.11-.1-1.66,0-.42.02-.85.04-1.25-.12.02-.05.02-.08,0-.1-.05-.07-.29.01-.43.07-.23.03-.44.01-.64-.11.04-.09.15-.05.22-.1-.16.04-.34-.03-.49.07-1.66-.22-3.24-.7-4.72-1.47-.63-.33-1.06-.74-.62-1.49.09.04.05.15.1.21-.04-.16.03-.33-.07-.47.1-.29-.17-.76.41-.82,1.83,1.25,3.93,1.73,6.11,1.99.18.02.39.06.61.13.05.02.1.03.15.05Z"/>
      <path class="cls-8" d="M71.09,15.8c.06-.5.08-1.01.21-1.5.07-.28-.05-.4-.2-.55.1-.05.2-.1.3-.16.16-.06.4-.14.71-.22.61-.15,1.04-.26,1.27-.05.06.05.18.2.14.56-.1.39-.09.78,0,1.18-.21,1.15-.32,1.23-1.41.98-.34-.08-.67-.17-1.01-.25Z"/>
      <path class="cls-9" d="M66.38,2.96c-.29-.12-.65-.24-1.08-.33-.4-.08-.75-.11-1.05-.12-.48-.25-1.01-.08-1.51-.17-.36-.07-.77,0-1.07-.28.67-.3,1.4-.23,2.04-.1.69.14,1.36.05,2.03.1.28.02.55,0,.8.15.56.36,1.18.41,1.83.3.25.05.51.1.76.15-.2.55-.61.16-.94.19.67.22,1.45-.09,2.03.44.03.25-.26.12-.33.25-.29-.2-.51-.23-.67-.23-.17,0-.34.07-.7.08-.07,0-.12,0-.15,0,.04.01.07.04.07.07,0,.03-.05.06-.11.04-.5-.12-.73.02-.68.57.09.88.08,1.05-.02,1.39-.09.32-.27.62-.35.6-.04-.01-.05-.12-.05-.21-.3-.81-.05-1.65-.16-2.46-.13-.32-.45-.18-.68-.27-.05-.06-.04-.12,0-.17Z"/>
      <path class="cls-5" d="M70.18,3.4c-.66-.35-1.46-.2-2.15-.52.35-.19.78.1,1.09-.21,1.21.26,2.47.42,3.5,1.18-.88.2-1.63-.27-2.43-.44Z"/>
      <path class="cls-2" d="M70.18,3.4c.17-.07.81-.18,1.38-.06.15.03.34.08,1.01.47.36.21.85.51,1.41.92-.49-.26-.91-.39-1.21-.47-1.07-.27-1.86-.12-2.84-.68-.07-.04-.13-.08-.17-.1.04,0,.1,0,.18,0,.13-.02.22-.06.24-.07Z"/>
      <path class="cls-3" d="M61.66,2.07c.92.1,1.83.2,2.75.3.07,0,.26,0,.06.13-.05.04-.15.01-.22.02-1.03,0-2.06,0-3.09,0-.24,0-.51.08-.71-.14.37-.22.77-.35,1.21-.3Z"/>
      <path class="cls-5" d="M68.35,2.51c-.69.4-1.31.37-1.83-.3.63-.02,1.23.09,1.83.3Z"/>
      <path class="cls-8" d="M67.44,16.09c.55-.22,1.11-.21,1.66,0-.55.07-1.11.07-1.66,0Z"/>
      <path class="cls-8" d="M73.51,15.07c-.22-.39-.22-.78,0-1.18.1.39.14.78,0,1.18Z"/>
      <path class="cls-8" d="M65.77,15.94c.26-.13.41-.17.45-.12.02.03.01.08-.03.16-.14-.01-.28-.02-.42-.04Z"/>
      <path class="cls-8" d="M59.55,12.57s.08.09.11.17c.1.25-.03.54-.08.53-.03,0-.06-.1-.07-.44.01-.09.02-.18.03-.26Z"/>
      <path class="cls-8" d="M64.86,15.79s.09-.05.16-.07c.17-.05.36-.03.37,0,0,.02-.04.05-.25.1-.09-.01-.18-.02-.27-.03Z"/>
      <path class="cls-8" d="M69.92,15.99c-.17-.08-.2-.12-.19-.14.01-.05.22-.07.4-.01.09.03.15.07.19.11-.13.02-.26.03-.4.05Z"/>
      <path class="cls-2" d="M68.35,3.4c.05,0,.1,0,.15,0,1.1.25,1.97.86,2.69,1.67.47.53.58,1.22.1,1.68-.8.75-.74,1.72-.96,2.62-.19.8-.32,1.62-.54,2.43-.05-1.09.43-2.13.38-3.22.09-.21-.07-.42,0-.63.57-1.47.13-2.64-1.07-3.63-.3-.24-.78-.4-.76-.91Z"/>
      <path class="cls-2" d="M66.38,2.96s0,.1,0,.15c-.38.36-.91.4-1.37.58-1.39.53-2.23,1.41-2.1,2.95-.02.21-.14.36-.33.45-.2,1.14-.4,2.28-.6,3.42-.01.05-.1.33-.14.32-.05,0-.04-.3-.04-.35.22-.77.37-1.9.56-3.14.09-.61.27-1.18-.01-1.85-.4-.94.08-1.71,1.08-2.1.95-.37,1.94-.51,2.96-.44Z"/>
      <path class="cls-10" d="M70.33,7.98c-.03.1-.05.2-.07.31-.04.19-.06.37-.08.54-.13-.12-.33-.29-.62-.39-.47-.17-.87-.06-1.29,0-.4.06-.99.09-1.74,0-.04-.04-.08-.09-.12-.17-.06-.13-.07-.28-.05-.44.05-.18.12-.34.35-.32.86.17,1.73.29,2.61.27.34,0,.71-.06,1,.21Z"/>
      <path class="cls-10" d="M62.57,7.09c.05-.15.1-.3.15-.44.13-.11.28-.11.42-.05,1.02.43,2.1.66,3.16.98.07.04.11.1.13.18-.06.17-.04.38-.21.51-1.22,0-2.24-.6-3.3-1.06-.11-.05-.23-.08-.35-.12Z"/>
      <path class="cls-4" d="M66.22,8.28c0-.16-.03-.34.15-.44.05-.07.1-.07.15,0,0,.2,0,.39,0,.59-.47,1.32-.53,2.72-1.02,4.04l.72-4.19Z"/>
      <path class="cls-8" d="M66.23,13.89c.15,0,.3-.02.45-.03.05.02.1.03.15.05-.21.2-.49.17-.7.1-.15-.05.05-.09.1-.12Z"/>
      <path class="cls-5" d="M66.38,7.69c-1.29-.1-2.46-.61-3.65-1.03-.19-1.63.69-2.56,2.15-3.11.49-.18.97-.4,1.5-.44.25-.1.51-.28.76,0,.08.49-.04.96-.24,1.4-.41.87-.54,1.76-.42,2.7.02.17.02.34-.09.49Z"/>
      <path class="cls-5" d="M70.33,7.98c-1.08.04-2.15-.02-3.22-.14-.22-.02-.4-.04-.43-.3,0-.61.37-1.1.61-1.62.32-.65.08-1.33.15-2,.03-.26,0-.53,0-.85.33.12.62.23.91.33.4.36.79.74,1.2,1.09,1.17.98,1.35,2.15.78,3.49Z"/>
      <path class="cls-2" d="M67.44,5.38c-.04.5-.17.94-.17.94-.05.15-.08.28-.16.45-.11.21-.24.36-.44.77-.06.12-.11.23-.14.3-.05,0-.1,0-.15,0-.08-.77-.1-1.84.19-3.07.15-.64.36-1.2.57-1.66.03.1.38,1.33.31,2.28Z"/>
      <path class="cls-6" d="M18.84,10.95c-.06-.02-.09-.07-.11-.12-.06-.16-.13-.32-.19-.48-.09-.26-.27-.44-.53-.53-.15-.06-.31-.12-.46-.18-.06-.02-.13-.04-.14-.12,0-.08.08-.1.14-.13.16-.07.33-.13.49-.2.23-.09.38-.25.47-.47.07-.17.13-.34.2-.51.02-.06.05-.13.13-.13.07,0,.09.07.12.13.07.16.13.33.2.5.09.23.25.4.49.49.17.07.34.13.51.2.06.02.12.05.12.12,0,.07-.06.1-.12.12-.17.07-.35.14-.52.21-.23.09-.38.25-.47.47-.07.17-.14.35-.21.52-.02.06-.05.11-.12.12Z"/>
      <path class="cls-6" d="M55.76,12.43c-.08-.02-.12-.08-.14-.15-.08-.2-.16-.4-.24-.6-.12-.33-.34-.54-.66-.66-.19-.07-.38-.15-.57-.23-.08-.03-.17-.06-.17-.15,0-.11.1-.13.18-.16.2-.08.41-.16.61-.25.28-.11.48-.31.59-.59.08-.21.16-.42.25-.63.03-.07.06-.16.16-.16.09,0,.12.09.15.16.08.2.16.41.24.62.11.29.31.5.61.61.21.08.42.16.63.25.07.03.15.06.15.15,0,.09-.08.12-.15.15-.21.09-.43.17-.64.26-.28.11-.48.31-.59.59-.09.21-.17.43-.25.65-.03.07-.07.14-.15.15Z"/>
      <path class="cls-1" d="M77.13,13.4c-.06-.02-.09-.07-.12-.12-.07-.16-.13-.32-.19-.48-.09-.26-.27-.44-.53-.54-.15-.06-.31-.12-.46-.18-.06-.02-.14-.04-.14-.12,0-.09.08-.1.14-.13.17-.07.33-.13.5-.2.23-.09.38-.25.47-.47.07-.17.13-.34.2-.51.02-.06.05-.13.13-.13.07,0,.09.07.12.13.07.16.13.33.2.5.09.24.25.4.49.49.17.07.34.13.51.2.06.02.12.05.12.12,0,.07-.07.1-.12.12-.17.07-.35.14-.52.21-.23.09-.38.25-.48.48-.07.17-.14.35-.21.52-.02.06-.05.11-.12.12Z"/>
      <path class="cls-1" d="M36.58,26.67c-.07-.02-.1-.07-.12-.13-.07-.17-.14-.34-.2-.51-.1-.28-.29-.46-.56-.56-.16-.06-.32-.13-.49-.19-.06-.03-.14-.05-.14-.13,0-.09.08-.11.15-.14.17-.07.35-.14.52-.21.24-.09.4-.26.5-.5.07-.18.14-.36.21-.54.03-.06.05-.14.14-.14.08,0,.1.07.12.13.07.17.14.35.21.52.1.25.27.42.52.52.18.07.36.14.54.21.06.02.13.05.13.13,0,.07-.07.1-.13.13-.18.07-.37.15-.55.22-.24.1-.4.26-.5.5-.07.18-.14.37-.22.55-.02.06-.06.12-.13.13Z"/>
    </g>
  </g>
</svg>