<?xml version="1.0" encoding="UTF-8"?>
<svg id="Layer_2" data-name="Layer 2" xmlns="http://www.w3.org/2000/svg" viewBox="0 0 791.84 280.13">
  <defs>
    <style>
      .cls-1 {
        fill: #e6e7f3;
      }

      .cls-1, .cls-2, .cls-3, .cls-4, .cls-5, .cls-6, .cls-7, .cls-8 {
        stroke-width: 0px;
      }

      .cls-2 {
        fill: #f1f2f9;
      }

      .cls-3 {
        fill: #e9ebf5;
      }

      .cls-4 {
        fill: #c5d7ff;
      }

      .cls-5 {
        fill: #e8f1f9;
      }

      .cls-6 {
        fill: #e8e9f4;
      }

      .cls-7 {
        fill: #edeff8;
      }

      .cls-8 {
        fill: #fff;
      }
    </style>
  </defs>
  <g id="Layer_1-2" data-name="Layer 1">
    <g>
      <path class="cls-4" d="M2.83,73.78c10.67-18.05,41.08-19.47,51.26-19.95,12.29-.57,29.28,2.45,60.44,7.31,2.63.41,8.7,1.37,16.52.33,8.4-1.11,12.18-3.66,17.63-5.36,18.21-5.69,36.61,3.72,38.13,4.52,14.56,7.69,13.5,17.39,25.78,21.23,10.15,3.17,18.89-1.14,27.45-4.23,17.23-6.2,33.54-6.1,66.16-5.91,49.91.3,87.46,11.52,87.47,11.52,13.06,3.9,23.31,8.11,34.14,3.32,13.17-5.82,11.39-17.98,27.24-28.09,14.36-9.15,22.36-3.35,31.68-12.76,9.55-9.63,4.65-19.23,11-29.48,13.56-21.88,59.42-16.09,77.03-13.87,33.94,4.28,82.8,19.69,84.37,41.88.71,10.04-8.43,18-3.78,25.48,3.67,5.9,11.01,3.6,21.73,8.09,17.22,7.2,15.83,20.49,30.33,29.82,17.3,11.13,28.96-1.53,48.02,6.07,22.46,8.96,35.68,38.3,36.39,62.67,1.14,38.91-29.46,69.76-58.13,78.85-23.26,7.37-42.01-.62-61.16-5.56-82.8-21.38-106.13,31.46-212.93,30.45-77.15-.74-77.29-27.54-157.65-23.4-43.46,2.24-57.87,10.86-109.62,8.62-46.26-2-41-9.17-92.92-11.3-34.83-1.43-55.9,1.02-72.73-14.56-12.26-11.35-16.06-26.7-17.86-33.87-5.92-23.63,2.78-33.26,3.62-60.56,1.29-41.62-19.89-53.85-9.6-71.27Z"/>
      <g>
        <path class="cls-5" d="M40.8,119.88h-.1c-.67.1-1.25-.4-1.33-1.01l-5.34-28.99-8.33,1.55c-.72.09-1.4-.33-1.49-1l-1.69-9.4v-.1c-.09-.61.35-1.19,1.01-1.33l9.5-1.76,20.11-3.72c.67-.09,1.4.34,1.49,1.05l1.68,9.3c.09.67-.35,1.35-1.05,1.49l-8.02,1.46,5.35,29.05v.05c.09.67-.4,1.25-1.01,1.38l-10.77,1.98Z"/>
        <path class="cls-8" d="M92.26,120.52c-.61.41-1.14.51-1.6.47-.2-.02-9.53-2.67-8.53-13.09.6-6.22-2.07-8.7-5.76-9.05l-.25-.02-1.79,18.63c-.06.62-.57,1.03-1.13.98l-10.27-.99c-.62-.06-1.03-.56-.97-1.18l4.03-41.99c.05-.56.56-1.03,1.18-.97l10.27.99c.56.05.98.61.92,1.17l-1.28,13.35c.62,0,1.23.06,1.8.12,9.65.93,16.8,7.42,15.97,17.59-.27,3.34.15,5.97,2.48,8.22.28.28.8.85.75,1.42-.02.25-.16.55-.55.83l-5.26,3.54Z"/>
        <path class="cls-5" d="M110.19,97c-4.23.07-7.68-3.28-7.75-7.45-.07-4.23,3.28-7.69,7.51-7.76,4.18-.07,7.64,3.28,7.71,7.51s-3.28,7.63-7.46,7.7ZM107.4,125.72h-.1c-.57.01-.99-.45-1.05-1.01l-1.69-25.09c0-.62.4-1.09,1.01-1.15l10.3-.68h.1c.51,0,.99.45.99.96l1.69,25.14v.1c0,.52-.44.99-.96,1.05l-10.31.68Z"/>
        <path class="cls-8" d="M132.06,130.15c-1.13.09-1.66-.07-2.04-.92l-2.74-5.78c-.07-.15-.13-.3-.14-.41-.06-.77.96-.95,1.57-1,3.03-.3,4.35-1.86,4.25-3.09-.05-.67-.79-1.44-1.58-2.3l-1.51-1.43c-2.47-2.39-3.57-4.52-3.73-6.48-.47-5.81,7.66-9.57,14.39-10.11,2-.16,2.53,0,2.97.9l2.8,5.77c.12.2.13.35.14.51.05.56-.5.82-1.17.87l-.21.02c-3.08.25-4.19,1.37-4.1,2.4.07.87.92,1.79,3.05,3.79,2.57,2.38,3.79,4.61,3.95,6.56.49,6.06-8.45,10.1-15.33,10.65l-.56.05Z"/>
        <path class="cls-5" d="M197.29,137.42l-.35.08c-.81.18-1.36.1-1.91-.47-.44-.53-3.81-5.64-5.12-7.67-.24-.37-.36-.45-.41-.44-.1.02-.08.33-.09.55.01,2.37.02,7.56-.09,8.95-.02.64-.68,1.42-1.53,1.67l-4.92,1.38-.25.06c-.91.2-1.88.11-2.56-.8l-15.35-20.21c-.22-.27-.51-.62-.6-1.03-.1-.45.09-.97,1.02-1.55l6.8-4.08c.33-.18.62-.3.87-.35.7-.16,1.24.09,1.54.5l7.58,9.66c.14.18.26.2.36.18s.22-.21.2-.52c-.19-1.75-.7-5.44-.75-5.91-.15-1.13.34-1.56,1.52-1.93l5.73-1.56.25-.06c.7-.16,1.22,0,1.69.68l2.68,5.74c.08.14.23.32.33.3.15-.03.17-.41-.03-11.84,0-.95.44-1.32,1.1-1.47.45-.1.98-.11,1.45-.12l6.36-.17c1.51-.08,1.95.46,2.11,1.16.06.25.08.56.08.82.85,20.59-.88,26.53-3.91,27.37l-3.78,1.06Z"/>
        <path class="cls-8" d="M223.62,134.46c-11.08-3.77-14.08-13.23-11.55-20.65,2.37-6.98,9.79-12.63,20.92-8.85,12.11,4.12,8.98,15.09,8.43,16.7-.76,2.25-2.32,3.79-5.54,3.79-2.56,0-6.35-.69-8.93-1.46-.78-.26-.91-.69-.9-1.35-.04-1.81.11-5.3.18-5.49.18-.54.66-.65,1.34-.58,2.73.28,3.11.3,3.34-.39.15-.44-.25-2.32-2.3-3.02-2.34-.8-4.99.59-6.02,3.62-1.18,3.47.03,8.24,6.14,10.31.34.12.73.25,1.09.31l.1.03c.68.23,1.36.96,1.08,1.79-.17.49-2.57,3.38-3.86,4.79-.66.65-1.52,1.12-2.94.64l-.58-.2Z"/>
        <path class="cls-5" d="M246.6,135.67c-.56-.08-1.01-.56-.98-1.18l3.85-42.01v-.1c.09-.51.62-.91,1.13-.88l10.28.96h.1c.57.1.91.62.88,1.18l-1.3,14.14c2.03-.33,4.16-.34,6.31-.03,9.8,1.41,15.38,8.3,14.06,17.49-1.33,9.29-10.39,14.66-19.32,13.37-2.2-.32-4.33-1.04-6.41-2.17l-8.59-.76ZM258.76,127.93c.83.38,1.63.6,2.45.72,3.57.51,6.63-1.55,7.13-5.02.32-2.19-.26-5.82-4.44-6.42-1.48-.21-3.02.03-4.23.43l-.91,10.29Z"/>
        <path class="cls-8" d="M292.09,138.94c-1.13.16-1.66.02-2.09-.8l-3.06-5.61c-.08-.15-.15-.29-.16-.4-.11-.77.9-1.01,1.52-1.09,3.01-.47,4.24-2.1,4.07-3.32-.09-.67-.87-1.39-1.71-2.21l-1.59-1.34c-2.6-2.24-3.82-4.31-4.09-6.25-.8-5.77,7.11-9.99,13.79-10.91,1.99-.28,2.53-.14,3.02.73l3.12,5.6c.13.19.15.34.17.5.08.56-.46.84-1.12.93l-.2.03c-3.07.42-4.1,1.61-3.96,2.63.12.87,1.02,1.73,3.26,3.61,2.7,2.23,4.04,4.38,4.31,6.33.83,6.03-7.86,10.56-14.7,11.51l-.56.08Z"/>
        <path class="cls-5" d="M318.25,108.36c-4.2.52-7.99-2.43-8.51-6.57s2.43-8,6.62-8.52c4.15-.52,7.95,2.44,8.47,6.63.52,4.15-2.44,7.94-6.58,8.46ZM318.59,137.22h-.1c-.56.08-1.03-.33-1.15-.88l-4.4-24.76c-.08-.61.28-1.13.88-1.25l10.17-1.79h.1c.51-.08,1.03.33,1.09.84l4.4,24.81v.1c.08.51-.32,1.03-.83,1.15l-10.17,1.79Z"/>
        <path class="cls-8" d="M351.94,133.37c-.53.92-1.06,1.38-1.82,1.28-.15-.02-.31-.04-.46-.11-8.03-2.67-10.33-7.54-8.96-20.51l-3.81-.69c-.56-.12-.95-.69-.88-1.25l1.68-8.42c.12-.56.64-.96,1.25-.88l3.25.62c.34-1.93.71-4.02,1.14-6.2.13-.61.35-1.57,1.68-1.4l.2.03,9.61,1.67c.86.16,1.21.72,1.1,1.59-.37,2.14-.81,4.37-1.23,6.5l3.5.65c.56.07.96.64.88,1.25l-1.68,8.42c-.12.51-.58.92-1.15.85h-.1s-3.36-.59-3.36-.59c-.59,4.65-.42,8.26,1.72,9.52.53.32,1.12.61,1.05,1.17-.01.1-.08.25-.16.4l-3.47,6.11Z"/>
        <path class="cls-5" d="M382.36,134.56c-11.59,1.62-18.52-5.49-19.6-13.25-1.02-7.3,3.07-15.68,14.71-17.31,12.67-1.77,14.8,9.44,15.04,11.13.33,2.35-.37,4.43-3.24,5.87-2.29,1.15-5.99,2.24-8.63,2.71-.82.11-1.12-.21-1.41-.8-.85-1.6-2.28-4.78-2.31-4.99-.08-.56.29-.88.94-1.12,2.57-.98,2.91-1.13,2.81-1.85-.06-.46-1.26-1.96-3.41-1.66-2.45.34-4.2,2.77-3.75,5.94.51,3.63,3.73,7.34,10.12,6.45.36-.05.77-.11,1.12-.21h.1c.72-.11,1.65.23,1.77,1.1.07.51-.78,4.17-1.3,6.01-.29.88-.86,1.68-2.34,1.89l-.61.09Z"/>
        <path class="cls-8" d="M433.24,126.64c-4.23,0-7.63-3.4-7.63-7.58s3.4-7.63,7.63-7.63,7.58,3.41,7.58,7.63-3.41,7.58-7.58,7.58ZM429.99,155.32h-.1c-.57,0-.98-.47-1.03-1.03l-1.29-25.11c0-.62.41-1.08,1.03-1.13l10.31-.52h.1c.52,0,.98.47.98.98l1.29,25.16v.1c0,.52-.46.98-.98,1.03l-10.32.52Z"/>
        <path class="cls-5" d="M454.11,155.3c-1.13.16-1.66.02-2.09-.8l-3.07-5.61c-.08-.15-.15-.29-.16-.4-.11-.77.9-1.01,1.51-1.09,3.01-.47,4.24-2.1,4.07-3.32-.09-.67-.87-1.39-1.71-2.21l-1.59-1.34c-2.6-2.24-3.82-4.31-4.09-6.25-.8-5.77,7.1-9.99,13.79-10.91,1.99-.28,2.53-.14,3.02.73l3.12,5.6c.13.19.15.34.17.5.08.56-.46.84-1.12.93l-.2.03c-3.07.42-4.1,1.61-3.96,2.63.12.87,1.02,1.73,3.26,3.61,2.7,2.23,4.04,4.38,4.31,6.32.83,6.03-7.86,10.56-14.7,11.51l-.56.08Z"/>
        <path class="cls-8" d="M34.99,224.15c-1.34,0-2.47-1.13-2.47-2.47v-80.55c0-1.34,1.13-2.47,2.47-2.47h20.94c1.34,0,2.48,1.13,2.48,2.47v80.55c0,1.34-1.13,2.47-2.48,2.47h-20.94ZM87.18,223.53c-1.34-.1-2.37-1.24-2.37-2.58l1.65-29.7-21.97-1.03c-1.34-.1-2.37-1.24-2.37-2.47v-.21l.83-18.05c.1-1.24,1.23-2.37,2.47-2.37h.21l21.97,1.13,1.44-27.74c.1-1.24,1.13-2.37,2.47-2.37h.21l20.73,1.13c1.34,0,2.37,1.24,2.37,2.58l-4.23,80.44c-.1,1.34-1.23,2.37-2.58,2.37l-20.83-1.13Z"/>
        <path class="cls-5" d="M183.59,233.88c-1.12,1.64-2.24,2.45-3.58,2.3-1.02-.11-8.02-2.56-12.6-7.95-5.64,2.17-11.31,2.78-16.54,2.19-17.12-1.92-30.4-16.69-28.55-33.19,1.38-12.3,12.08-29.05,32.37-26.78,5.12.57,10.02,2.26,13.82,4.46.69-.65,1.65-.85,2.88-.72l.51.06,17.56,3.52c2.64.5,3.21,1.92,3.07,3.15l-.06.51c-2.48,9.17-4.92,17.92-5.68,24.69-.69,6.15-.06,10.68,3.03,12.79.97.63,2.03,1.37,1.91,2.39-.02.2-.16.5-.41.89l-7.75,11.69ZM162.62,202.58c.3-2.67.71-5.42,1.26-8.47-1-2.19-3.61-3.93-6.58-4.27-6.46-.72-10.74,5.13-11.33,10.35-.64,5.74,2.8,11.11,9.46,11.86,1.95.22,4.25.06,6.72-.7,0-2.7.11-5.59.47-8.77Z"/>
        <path class="cls-8" d="M212.53,239.75c-1.13.12-2.15-.71-2.27-1.83l-8.83-83.8c-.13-1.23.7-2.25,1.82-2.37l20.62-2.17c1.13-.12,2.15.71,2.28,1.93l8.83,83.8c.12,1.13-.71,2.15-1.83,2.27l-20.62,2.17Z"/>
        <path class="cls-5" d="M277.98,238.99c-.21,2.26-1.68,2.43-3.01,2.31,0,0-16.94-.45-19.31-.68l-.2-.02c-1.54-.14-2.46-1.47-2.42-2.92.55-10.21.95-23.32,1.79-35.57l-7.36-1.11c-1.12-.21-1.95-1.32-1.84-2.45l2.83-16.93c.21-1.12,1.22-1.96,2.45-1.84l5.93.87.66-3.77c3.74-18.81,18.55-24.26,31.58-23.03,3.9.37,7.64,1.34,10.83,2.68,1.3.43,1.47,2,1.37,3.03l-.04.41-2.95,11.53c-.36,1.62-2.1,2.5-3.43,2.37l-.31-.03c-5.24-.49-12.69.57-13.61,10.32l8.68,1.33c1.13.11,1.96,1.22,1.84,2.45l-2.83,16.93c-.2,1.02-1.11,1.87-2.24,1.76l-.2-.02-7.16-.98c-.62,11.03-.95,23.32-1.02,32.85l-.05.51Z"/>
        <path class="cls-8" d="M343.14,155.35l.03-.2c.17-1.23,1.33-2.11,2.65-1.93l11.95.89c6.14-1.56,13.9-1.97,21.57-.94,24.22,3.27,32.66,17.84,30.91,30.82-.93,6.85-4.95,12.02-9.91,15.52,2.55,2.74,4.59,5.3,5.63,9.19,1.2,4.22,1.51,8.11,1.05,11.49-2.35,17.37-24.37,23.97-44.81,21.21-5.73-.77-24.63-4.89-25.13-12.76l6.05-73.28ZM366.22,190.21c5.04.47,17.37,1.62,18.56-7.17.64-4.7-2.45-9.59-11.24-10.78-1.94-.26-3.91-.32-5.81-.16l-1.51,18.11ZM363.58,222.11c1.4.4,2.72.68,4.05.86,7.56,1.02,13.52-1.5,14.21-6.61.72-5.32-3.3-8.67-11.48-9.78-1.94-.26-3.79-.41-5.46-.42l-1.32,15.95Z"/>
        <path class="cls-5" d="M484,239.75c-.83,1.8-1.81,2.79-3.15,2.86-1.03.06-8.33-1.2-13.74-5.76-5.2,3.07-10.7,4.61-15.95,4.9-17.2.93-32.74-11.44-33.64-28.02-.67-12.36,7.11-30.65,27.5-31.76,5.15-.28,10.26.58,14.37,2.11.58-.75,1.49-1.12,2.72-1.18l.52-.03,17.9.57c2.69.06,3.48,1.36,3.55,2.6l.03.51c-.93,9.45-1.89,18.49-1.52,25.29.34,6.18,1.71,10.55,5.1,12.12,1.06.46,2.22,1.01,2.28,2.05.01.21-.08.52-.26.94l-5.71,12.81ZM458.14,212.33c-.15-2.68-.2-5.46-.16-8.57-1.34-1.99-4.21-3.28-7.19-3.12-6.49.35-9.75,6.83-9.46,12.08.31,5.77,4.6,10.49,11.29,10.13,1.96-.11,4.2-.64,6.51-1.8-.45-2.66-.81-5.54-.99-8.73Z"/>
        <path class="cls-8" d="M559.28,235.74c-.94,1.04-1.83,1.57-2.86,1.46-.51-.06-1.11-.33-1.67-.8-5.24-4.3-17.21-13.58-22.08-17.42-.57-.48-1.1-1.36-1-2.29.06-.51.31-1,.89-1.56l8.57-8.31c-5.55,2.41-10.54,4.47-12.7,5.27l-.65.24-.97,17.63c-.13,1.23-1.06,2.17-2.29,2.03l-20.63-1.08c-1.13-.12-2.07-1.05-2.04-2.3l4.72-84.24.02-.2c.11-1.03,1.13-1.85,2.17-1.84l20.62,1.19.2.02c1.13.12,1.85,1.13,1.83,2.27l-2.44,43.82c4.56-2.83,23.61-14.05,28.12-13.57.82.09,1.7.6,2.38,2.02l7.02,14.76c.34.66.48,1.29.41,1.91-.11,1.02-.82,1.88-2.12,2.36-2.7.96-8.88,3.5-15.4,6.23,6.94,3.03,20.73,15.61,20.32,19.41-.07.61-.34,1.21-.94,1.97l-9.48,11.01Z"/>
        <path class="cls-5" d="M613.16,225.05c-23.11,3.73-37.27-10.19-39.76-25.66-2.35-14.56,5.47-31.49,28.69-35.23,25.25-4.07,30,18.25,30.54,21.61.76,4.68-.56,8.86-6.24,11.87-4.52,2.4-11.88,4.74-17.14,5.8-1.63.26-2.25-.37-2.86-1.53-1.76-3.16-4.77-9.47-4.83-9.87-.18-1.12.55-1.76,1.83-2.28,5.1-2.08,5.78-2.39,5.55-3.82-.15-.92-2.6-3.86-6.88-3.17-4.89.79-8.27,5.72-7.25,12.04,1.17,7.23,7.77,14.52,20.5,12.47.71-.11,1.53-.25,2.23-.47l.2-.03c1.43-.23,3.3.41,3.58,2.14.16,1.02-1.37,8.37-2.34,12.08-.55,1.76-1.65,3.4-4.6,3.88l-1.22.2Z"/>
        <path class="cls-8" d="M712.02,219.72c-.63,2.03-1.55,3.16-3.09,3.32,0,0-8.92-.04-15.24-5.2-5.43,3.76-11.24,5.79-16.88,6.36-17.14,1.72-33.13-9.94-34.79-26.46-1.26-12.52,5.7-30.94,26.02-32.99,4.41-.44,8.92.04,12.75,1l-.92-27.69c-.07-1.75,1.47-2.95,3.52-3.15l17.78-1.48c2.87-.29,3.83.96,3.97,2.4l.03.31c-.07,1.35.95,44.48,1.66,51.55.85,8.42,2.71,14.55,7.1,15.98,1.18.4,2.36.8,2.45,1.72.03.3.06.61-.11.94l-4.25,13.38ZM681.99,186.05c-1.33-1.94-4.35-3.09-7.43-2.78-6.16.62-9.49,6.66-8.92,12.4.58,5.75,5.08,10.27,11.64,9.61,2.26-.23,4.76-1.1,7.5-2.72-1.18-4.54-2.14-9.94-2.8-16.51Z"/>
        <path class="cls-5" d="M723.75,211.35c.5-8.13,7.49-14.32,15.62-13.82s14.22,7.48,13.72,15.61c-.5,8.13-7.49,14.32-15.52,13.83-8.13-.5-14.32-7.49-13.82-15.62ZM731.2,192.69c-1.24-.08-2.11-1.06-2.14-2.3-.06-9.2-.02-35.13.75-49.34.07-1.13.95-2.11,2.19-2.04l22.03,1.35c1.85.11,3.38.52,2.38,16.89-.74,12.15-3.19,25.12-5.42,34.49-.28,1.22-1.16,2.1-2.4,2.02l-17.4-1.06Z"/>
      </g>
      <path class="cls-2" d="M513.99,101c2.48-13.8,4.88-27.61,7.48-41.39,1.02-5.42.61-10.03-3.28-14.68-7.58-9.05-7.27-18.62-.07-24.58,10.68-.77,21.36-.95,32.03.03,3.57,1.05,7.32.33,10.92.93,3.07.51,6.61.29,8.32,3.76-1.8,2.55-4.61,2.01-7.12,2.05-5.97.09-11.63,1.53-17.11,3.64-8.64,3.34-11.36,8.34-8.65,17.07,1.34,4.31,1.06,8.13-.14,12.34-2.78,9.73-3.84,19.79-4.99,25.67.86-5.53,2.59-15.08,4.6-24.57,1.24-1.39,2.8-1.13,4.18-.47,8.98,4.31,18.53,7.15,27.98,10.25.14,9.51-2.97,18.53-4.5,27.79-.22,1.32-.09,2.57-.3,2.97,1.57-8.93,3.49-18.67,5.33-28.41.21-1.14,1.16-1.71,2.23-2.1,8.62.16,17.24,1.18,25.85-.43,1.89-.35,3.89.17,5.38,1.65,1.61,9.56-2.73,18.29-3.56,26.78,2.28-9.45,3.92-19.79,5.22-30.17.46-3.71,1.74-6.77,4.23-9.65,5.29-6.1,4.91-10.73-.68-16.72-4.17-4.47-9.32-7.51-14.77-10.17-1.92-.93-4.15-1.34-5.39-3.31.71-3.25,3.29-2.57,5.44-2.23,2.25.35,4.52.75,6.67,1.56,5.42,1.1,11.51,2.66,18.04,4.9,5.53,1.9,10.49,3.98,14.85,6.04.6.17,1.48.5,2.35,1.17,3.76,2.89,2.76,8.67,2.7,9.01-.45,2.4-1.34,4.1-3.57,6.34-3.6,3.61-6.74,7.83-11.76,9.86-2.35.95-2.76,2.78-3.16,5.03-.75,4.15-4.21,33.69-7.48,40.23-.28.57-1.44,2.73-.54,4.39.39.71,1.04,1.12,1.56,1.37.3,1.92-1.27,2.25-2.55,2.85-11.69,2.79-23.48,3.15-35.34,1.21-.63-.1-1.25-.29-1.84-.54-.44.33-1.32.87-2.53.98-2.63.25-4.42-1.76-4.61-1.98-16.88-1.2-32.62-6.19-47.58-13.67-1.93-.97-3.66-2.31-3.82-4.74Z"/>
      <path class="cls-5" d="M572.97,119.64c5.48.36,11.56.51,18.15.27,6.78-.25,13.01-.87,18.57-1.66.81.2,2.42.72,3.13,2.1.48.92.36,1.84.28,2.33-.75,4.49-.54,9.21-3.47,13.16-2.2.4-4.4.81-6.6,1.21-1.16-.71-2.46-.4-3.71-.44-.38-.01-.87-.2-1.13.3.69-.3,1.11.01,1.42.58-2.22,1.25-4.62,1.1-7.03.87-4.77-.78-9.53-.85-14.29.04-3.64.21-7.27.37-10.74-1.03.21-.47.17-.73.06-.88-.45-.6-2.48.1-3.68.57-1.94.22-3.82.1-5.51-.98.39-.77,1.31-.45,1.87-.88-1.38.36-2.91-.28-4.21.6-14.29-1.9-27.84-6.06-40.57-12.67-5.39-2.8-9.09-6.34-5.36-12.79.78.38.46,1.27.9,1.81-.36-1.34.28-2.82-.62-4.08.86-2.51-1.46-6.53,3.56-7.07,15.76,10.77,33.81,14.89,52.52,17.13,1.58.17,3.34.49,5.21,1.08.43.14.85.28,1.26.43Z"/>
      <path class="cls-3" d="M609.64,135.84c.54-4.3.67-8.7,1.78-12.86.64-2.42-.46-3.4-1.72-4.73.85-.45,1.7-.89,2.56-1.34,1.39-.52,3.48-1.23,6.09-1.86,5.28-1.29,8.99-2.19,10.93-.39.49.45,1.54,1.7,1.19,4.84-.87,3.37-.78,6.74.04,10.11-1.84,9.91-2.76,10.55-12.15,8.4-2.91-.67-5.8-1.44-8.7-2.17Z"/>
      <path class="cls-6" d="M569.1,25.43c-2.48-1.02-5.61-2.07-9.3-2.81-3.4-.68-6.46-.94-9.01-.99-4.15-2.18-8.72-.67-13.01-1.44-3.11-.56-6.59-.02-9.23-2.38,5.72-2.62,12.07-1.98,17.57-.87,5.95,1.19,11.65.4,17.44.83,2.37.17,4.72.08,6.85,1.32,4.84,3.11,10.15,3.49,15.69,2.54,2.18.42,4.35.85,6.53,1.27-1.76,4.72-5.23,1.34-8.09,1.67,5.75,1.88,12.44-.76,17.44,3.76.26,2.18-2.2,1.06-2.81,2.18-2.48-1.73-4.41-2.02-5.73-1.95-1.42.07-2.92.59-6.03.68-.56.01-1.02.01-1.32,0,.37.11.6.38.57.58-.03.23-.44.48-.95.35-4.3-1.01-6.31.15-5.82,4.91.77,7.54.65,9.03-.14,11.92-.73,2.71-2.34,5.36-3.01,5.2-.36-.09-.44-.99-.45-1.8-2.59-6.93-.4-14.16-1.41-21.16-1.1-2.76-3.9-1.56-5.85-2.34-.4-.51-.38-1,.06-1.48Z"/>
      <path class="cls-2" d="M601.8,29.24c-5.72-3.03-12.58-1.72-18.52-4.5,3.03-1.63,6.72.84,9.35-1.84,10.43,2.25,21.2,3.58,30.1,10.15-7.55,1.69-13.99-2.33-20.93-3.8Z"/>
      <path class="cls-1" d="M601.8,29.24c1.47-.61,6.98-1.52,11.87-.54,1.27.25,2.97.73,8.69,4.08,3.06,1.79,7.27,4.4,12.13,7.9-4.19-2.22-7.82-3.39-10.4-4.05-9.22-2.36-15.96-1-24.41-5.84-.63-.36-1.13-.68-1.45-.89.36.01.9.01,1.53-.08,1.09-.16,1.86-.5,2.05-.58Z"/>
      <path class="cls-1" d="M528.55,17.8c7.88.85,15.75,1.7,23.63,2.57.64.07,2.2,0,.51,1.08-.47.3-1.26.13-1.91.17-8.87,0-17.74.04-26.61-.04-2.07-.02-4.39.71-6.08-1.24,3.22-1.87,6.62-3.02,10.45-2.55Z"/>
      <path class="cls-2" d="M586.11,21.62c-5.97,3.47-11.3,3.2-15.69-2.54,5.41-.18,10.62.79,15.69,2.54Z"/>
      <path class="cls-3" d="M578.3,138.4c4.76-1.86,9.52-1.81,14.29-.04-4.76.57-9.53.57-14.29.04Z"/>
      <path class="cls-3" d="M630.49,129.6c-1.92-3.36-1.88-6.73-.04-10.11.83,3.37,1.18,6.73.04,10.11Z"/>
      <path class="cls-3" d="M563.93,137.06c2.23-1.1,3.52-1.44,3.87-1.03.19.22.11.67-.25,1.34-1.21-.1-2.41-.21-3.62-.31Z"/>
      <path class="cls-3" d="M510.43,108.07c.32.33.7.81.96,1.46.85,2.14-.22,4.62-.66,4.58-.25-.02-.48-.85-.57-3.76.09-.76.19-1.52.28-2.28Z"/>
      <path class="cls-3" d="M556.08,135.81c.31-.19.76-.43,1.34-.61,1.49-.46,3.13-.3,3.17-.02.02.14-.38.4-2.17.9-.78-.09-1.56-.18-2.34-.27Z"/>
      <path class="cls-3" d="M599.62,137.49c-1.43-.68-1.71-1.04-1.66-1.24.11-.45,1.9-.62,3.4-.12.76.25,1.31.63,1.67.92-1.14.15-2.28.3-3.42.44Z"/>
      <path class="cls-1" d="M586.1,29.25c.44,0,.88,0,1.32,0,9.46,2.12,16.9,7.39,23.16,14.34,4.08,4.53,4.99,10.5.83,14.43-6.84,6.48-6.38,14.76-8.25,22.49-1.67,6.91-2.78,13.95-4.66,20.86-.46-9.38,3.67-18.29,3.3-27.65.8-1.8-.64-3.64.08-5.44,4.91-12.64,1.16-22.71-9.22-31.23-2.55-2.09-6.69-3.41-6.56-7.8Z"/>
      <path class="cls-1" d="M569.1,25.43c0,.42,0,.85,0,1.27-3.28,3.11-7.84,3.48-11.82,5-11.99,4.57-19.17,12.14-18.07,25.4-.18,1.82-1.21,3.05-2.8,3.91-1.71,9.82-3.42,19.63-5.13,29.45-.12.43-.82,2.81-1.24,2.75-.42-.06-.34-2.58-.32-3.01,1.92-6.65,3.22-16.33,4.78-27,.76-5.21,2.36-10.17-.09-15.89-3.46-8.09.65-14.71,9.25-18.07,8.18-3.2,16.68-4.37,25.45-3.8Z"/>
      <path class="cls-7" d="M603.1,68.63c-.23.84-.45,1.72-.64,2.66-.34,1.65-.54,3.2-.65,4.62-1.1-1.07-2.87-2.5-5.36-3.38-4.01-1.42-7.46-.55-11.09-.05-3.46.48-8.5.81-14.95-.04-.32-.34-.7-.81-.99-1.43-.54-1.15-.62-2.42-.4-3.77.44-1.51,1.01-2.89,3.03-2.76,7.41,1.46,14.86,2.47,22.46,2.35,2.95-.05,6.11-.5,8.59,1.8Z"/>
      <path class="cls-7" d="M536.42,61.01c.44-1.27.87-2.54,1.31-3.81,1.11-.98,2.43-.93,3.64-.43,8.77,3.67,18.08,5.66,27.14,8.44.61.36.97.88,1.11,1.56-.53,1.5-.32,3.29-1.82,4.41-10.53.08-19.24-5.19-28.4-9.11-.96-.41-1.98-.7-2.97-1.05Z"/>
      <path class="cls-6" d="M567.79,71.18c.05-1.4-.23-2.9,1.31-3.81.44-.61.87-.61,1.31,0,0,1.69,0,3.39,0,5.08-4.05,11.32-4.59,23.4-8.77,34.74,2.05-12,4.1-24.01,6.15-36.01Z"/>
      <path class="cls-3" d="M567.83,119.44c1.29-.08,2.59-.16,3.88-.23.42.14.84.29,1.26.43-1.78,1.75-4.2,1.45-6.03.83-1.27-.43.41-.74.89-1.02Z"/>
      <path class="cls-2" d="M569.1,66.09c-11.09-.88-21.11-5.28-31.38-8.89-1.67-14.01,5.92-22.01,18.46-26.74,4.2-1.58,8.32-3.46,12.92-3.76,2.18-.88,4.36-2.42,6.54,0,.71,4.24-.34,8.28-2.11,12.01-3.52,7.44-4.68,15.12-3.64,23.18.19,1.46.2,2.93-.8,4.19Z"/>
      <path class="cls-2" d="M603.1,68.63c-9.27.32-18.49-.19-27.69-1.24-1.86-.21-3.46-.35-3.69-2.58,0-5.27,3.16-9.43,5.24-13.97,2.76-5.56.69-11.46,1.27-17.18.23-2.27.04-4.58.04-7.28,2.85,1.04,5.34,1.94,7.84,2.85,3.44,3.12,6.77,6.37,10.33,9.35,10.04,8.41,11.59,18.53,6.67,30.03Z"/>
      <path class="cls-1" d="M578.28,46.3c-.33,4.33-1.45,8.05-1.45,8.05-.39,1.31-.69,2.43-1.41,3.87-.91,1.82-2.06,3.12-3.81,6.6-.54,1.06-.94,1.95-1.2,2.55-.44,0-.87,0-1.31,0-.7-6.64-.83-15.85,1.67-26.39,1.31-5.52,3.08-10.3,4.88-14.26.26.89,3.26,11.4,2.63,19.59Z"/>
      <path class="cls-8" d="M160.3,94.15c-.55-.16-.8-.57-.99-1.03-.56-1.38-1.14-2.75-1.65-4.15-.81-2.26-2.35-3.75-4.58-4.59-1.32-.5-2.63-1.04-3.95-1.56-.52-.21-1.16-.38-1.16-1.05,0-.73.68-.9,1.23-1.12,1.42-.57,2.83-1.14,4.25-1.7,1.95-.76,3.29-2.14,4.07-4.07.58-1.45,1.13-2.92,1.72-4.36.21-.5.41-1.13,1.11-1.1.62.03.81.6,1.01,1.08.57,1.41,1.12,2.84,1.68,4.26.79,2.02,2.17,3.44,4.21,4.23,1.46.56,2.91,1.14,4.36,1.73.49.2,1.05.42,1.06,1.02,0,.61-.56.83-1.05,1.03-1.49.6-2.98,1.18-4.46,1.77-1.94.77-3.29,2.15-4.07,4.08-.6,1.48-1.17,2.98-1.76,4.47-.2.5-.46.94-1.02,1.06Z"/>
      <path class="cls-8" d="M477.84,106.85c-.68-.19-1-.71-1.23-1.27-.69-1.72-1.42-3.42-2.04-5.16-1.01-2.8-2.92-4.66-5.69-5.7-1.65-.62-3.27-1.29-4.9-1.94-.65-.26-1.44-.47-1.45-1.3,0-.91.84-1.12,1.52-1.39,1.76-.71,3.52-1.42,5.28-2.11,2.43-.95,4.09-2.65,5.06-5.06.72-1.8,1.4-3.62,2.14-5.42.26-.62.5-1.41,1.37-1.37.78.03,1.01.75,1.25,1.34.71,1.76,1.4,3.53,2.09,5.29.98,2.51,2.7,4.28,5.23,5.26,1.81.7,3.62,1.42,5.42,2.14.6.24,1.31.52,1.31,1.27,0,.75-.69,1.03-1.3,1.28-1.85.74-3.7,1.47-5.54,2.2-2.41.96-4.09,2.67-5.06,5.06-.74,1.84-1.46,3.7-2.19,5.55-.24.62-.57,1.17-1.27,1.32Z"/>
      <path class="cls-5" d="M661.57,115.23c-.55-.16-.8-.57-.99-1.03-.56-1.39-1.14-2.76-1.65-4.17-.82-2.26-2.36-3.77-4.59-4.6-1.33-.5-2.64-1.04-3.96-1.56-.52-.21-1.16-.38-1.17-1.05,0-.73.68-.9,1.23-1.12,1.42-.57,2.84-1.15,4.27-1.7,1.96-.77,3.31-2.14,4.08-4.08.58-1.46,1.13-2.93,1.73-4.37.21-.5.41-1.13,1.11-1.1.63.03.82.6,1.01,1.08.58,1.42,1.13,2.85,1.68,4.27.79,2.03,2.18,3.45,4.22,4.24,1.46.57,2.92,1.14,4.38,1.73.49.2,1.06.42,1.06,1.03,0,.61-.56.83-1.05,1.03-1.49.6-2.98,1.19-4.48,1.78-1.95.78-3.3,2.15-4.09,4.09-.6,1.49-1.18,2.99-1.77,4.48-.2.5-.46.94-1.02,1.06Z"/>
      <path class="cls-5" d="M312.9,229.35c-.58-.17-.85-.6-1.04-1.08-.59-1.46-1.21-2.91-1.74-4.39-.86-2.39-2.48-3.97-4.84-4.85-1.4-.52-2.78-1.1-4.17-1.65-.55-.22-1.22-.4-1.23-1.11,0-.77.72-.95,1.3-1.18,1.5-.6,2.99-1.21,4.5-1.79,2.06-.81,3.48-2.26,4.3-4.3.61-1.53,1.19-3.08,1.82-4.61.22-.53.43-1.2,1.17-1.16.66.03.86.64,1.06,1.14.61,1.49,1.19,3,1.77,4.5.83,2.13,2.3,3.64,4.45,4.47,1.54.6,3.08,1.21,4.61,1.82.51.21,1.11.44,1.12,1.08,0,.64-.59.88-1.11,1.09-1.57.63-3.14,1.25-4.72,1.87-2.05.82-3.48,2.27-4.3,4.31-.63,1.57-1.24,3.15-1.86,4.72-.21.52-.48.99-1.08,1.12Z"/>
    </g>
  </g>
</svg>